<svg width="8" height="4" viewBox="0 0 8 4" fill="none" xmlns="http://www.w3.org/2000/svg">
<path d="M0.00103188 3.43237C0.000771523 3.56476 0.0471683 3.69307 0.132169 3.79502C0.180034 3.85239 0.238819 3.89982 0.305156 3.93458C0.371493 3.96935 0.444078 3.99076 0.518756 3.99761C0.593435 4.00445 0.668738 3.99658 0.740352 3.97446C0.811967 3.95234 0.878487 3.91639 0.9361 3.86868L3.99218 1.33016L7.05396 3.77802C7.11228 3.82508 7.17939 3.86023 7.25142 3.88144C7.32346 3.90265 7.399 3.90951 7.47371 3.90161C7.54841 3.89371 7.62082 3.87122 7.68675 3.83542C7.75268 3.79962 7.81084 3.75123 7.85789 3.69302C7.9098 3.63439 7.94895 3.56574 7.97289 3.49136C7.99683 3.41698 8.00505 3.33849 7.99701 3.26081C7.98898 3.18313 7.96488 3.10793 7.92622 3.03995C7.88757 2.97196 7.83519 2.91265 7.77237 2.86574L4.35138 0.128902C4.24936 0.0455606 4.12139 0 3.98933 0C3.85727 0 3.7293 0.0455606 3.62728 0.128902L0.206291 2.96206C0.137291 3.01891 0.082747 3.09112 0.0470843 3.17283C0.0114212 3.25454 -0.00435638 3.34346 0.00103188 3.43237Z" fill="#2176AE"/>
</svg>
