<svg width="8" height="4" viewBox="0 0 8 4" fill="none" xmlns="http://www.w3.org/2000/svg">
<path d="M7.99897 0.56763C7.99923 0.435235 7.95283 0.306929 7.86783 0.204985C7.81997 0.147609 7.76118 0.10018 7.69484 0.0654164C7.62851 0.0306523 7.55592 0.00923571 7.48124 0.00239313C7.40657 -0.00444945 7.33126 0.00341656 7.25965 0.0255404C7.18803 0.0476643 7.12151 0.083611 7.0639 0.131323L4.00782 2.66984L0.946038 0.221984C0.887717 0.174916 0.820611 0.139767 0.748577 0.118557C0.676542 0.0973471 0.601001 0.0904943 0.526293 0.0983927C0.451585 0.106291 0.379185 0.128785 0.313253 0.164581C0.247321 0.200377 0.189158 0.248771 0.142106 0.306979C0.0902005 0.365606 0.0510487 0.434263 0.0271081 0.50864C0.00316741 0.583018 -0.00504506 0.661511 0.00298564 0.739192C0.0110163 0.816873 0.035117 0.892066 0.0737752 0.960052C0.112433 1.02804 0.164814 1.08735 0.227631 1.13426L3.64862 3.8711C3.75064 3.95444 3.87861 4 4.01067 4C4.14273 4 4.2707 3.95444 4.37272 3.8711L7.79371 1.03794C7.86271 0.981092 7.91725 0.908884 7.95292 0.82717C7.98858 0.745456 8.00436 0.656538 7.99897 0.56763Z" fill="#2176AE"/>
</svg>
