<svg width="4" height="9" viewBox="0 0 4 9" fill="none" xmlns="http://www.w3.org/2000/svg">
<path d="M0.56763 0.501032C0.435235 0.500772 0.306929 0.547168 0.204985 0.632169C0.147609 0.680034 0.10018 0.738819 0.0654164 0.805156C0.0306523 0.871493 0.00923571 0.944078 0.00239313 1.01876C-0.00444945 1.09343 0.00341656 1.16874 0.0255404 1.24035C0.0476643 1.31197 0.083611 1.37849 0.131323 1.4361L2.66984 4.49218L0.221984 7.55396C0.174916 7.61228 0.139767 7.67939 0.118557 7.75142C0.0973471 7.82346 0.0904943 7.899 0.0983927 7.97371C0.106291 8.04841 0.128785 8.12082 0.164581 8.18675C0.200377 8.25268 0.248771 8.31084 0.306979 8.35789C0.365606 8.4098 0.434263 8.44895 0.50864 8.47289C0.583018 8.49683 0.661511 8.50505 0.739192 8.49701C0.816873 8.48898 0.892066 8.46488 0.960052 8.42622C1.02804 8.38757 1.08735 8.33519 1.13426 8.27237L3.8711 4.85138C3.95444 4.74936 4 4.62139 4 4.48933C4 4.35727 3.95444 4.2293 3.8711 4.12728L1.03794 0.706291C0.981092 0.637291 0.908884 0.582747 0.82717 0.547084C0.745456 0.511421 0.656538 0.495644 0.56763 0.501032Z" fill="#57B8FF"/>
</svg>
