<svg width="10" height="11" viewBox="0 0 10 11" fill="none" xmlns="http://www.w3.org/2000/svg">
<path d="M3.50001 5.1335V9.875C3.50001 9.93894 3.51636 10.0018 3.54752 10.0577C3.57867 10.1135 3.62359 10.1605 3.678 10.1941C3.73242 10.2277 3.79452 10.2468 3.8584 10.2496C3.92229 10.2524 3.98583 10.2389 4.04301 10.2102L6.29301 9.08525C6.35522 9.05407 6.40753 9.0062 6.44408 8.947C6.48064 8.88779 6.5 8.81958 6.50001 8.75V5.1335L9.79026 1.11275C9.82148 1.07463 9.84489 1.03074 9.85915 0.983574C9.8734 0.936411 9.87823 0.886901 9.87336 0.837872C9.86848 0.788843 9.854 0.741254 9.83073 0.697822C9.80747 0.65439 9.77587 0.615967 9.73776 0.584745C9.69964 0.553523 9.65575 0.530115 9.60859 0.515856C9.56142 0.501597 9.51191 0.496768 9.46288 0.501643C9.41385 0.506518 9.36627 0.521002 9.32283 0.544269C9.2794 0.567536 9.24098 0.599129 9.20976 0.637245L5.83476 4.76225C5.77988 4.82932 5.74994 4.91333 5.75001 5V8.51825L4.25001 9.26825V5C4.25008 4.91333 4.22013 4.82932 4.16526 4.76225L1.29126 1.25H7.25001C7.34946 1.25 7.44485 1.21049 7.51517 1.14016C7.5855 1.06983 7.62501 0.974451 7.62501 0.874995C7.62501 0.775539 7.5855 0.680156 7.51517 0.60983C7.44485 0.539504 7.34946 0.499995 7.25001 0.499995H0.500006C0.428966 0.499948 0.359373 0.52008 0.299331 0.558049C0.239288 0.596018 0.191266 0.650261 0.160854 0.714463C0.130443 0.778664 0.118894 0.850184 0.127551 0.920695C0.136209 0.991206 0.164717 1.05781 0.209756 1.11275L3.50001 5.1335Z" fill="#2176AE"/>
</svg>
